<?xml version="1.0" standalone="no"?>
<!DOCTYPE svg PUBLIC "-//W3C//DTD SVG 20010904//EN"
 "http://www.w3.org/TR/2001/REC-SVG-20010904/DTD/svg10.dtd">
<svg version="1.0" xmlns="http://www.w3.org/2000/svg"
 width="564.000000pt" height="818.000000pt" viewBox="0 0 564.000000 818.000000"
 preserveAspectRatio="xMidYMid meet">

<g transform="translate(0.000000,818.000000) scale(0.100000,-0.100000)"
fill="#000000" stroke="none">
<path d="M3225 7999 c-478 -4 -1185 -10 -1570 -12 -444 -3 -729 -9 -780 -16
-376 -54 -581 -246 -652 -612 -16 -86 -18 -156 -18 -789 0 -756 10 -2369 25
-3860 5 -520 12 -1341 16 -1825 4 -484 8 -881 9 -883 1 -1 327 -1 723 0 l722
3 -54 81 c-54 80 -54 82 -31 86 31 6 36 2 67 -53 15 -25 34 -51 42 -59 9 -7
16 -23 16 -36 0 -24 1 -24 106 -24 91 0 109 3 131 20 15 12 20 20 12 20 -41 0
-87 22 -100 47 -8 15 -25 37 -38 49 l-24 20 124 12 c154 15 386 16 391 2 2 -6
25 -12 51 -13 36 -3 54 -10 77 -32 17 -16 29 -34 27 -40 -2 -5 -23 -12 -48
-15 -30 -3 -44 -10 -44 -20 0 -12 15 -15 76 -15 59 0 81 -4 96 -18 18 -16 60
-17 581 -17 l562 0 0 183 c0 155 2 178 13 157 8 -15 11 -39 7 -60 -3 -19 -5
-44 -5 -55 4 -56 6 -65 14 -65 6 0 7 16 4 34 -3 19 -2 47 1 62 6 23 9 25 18
13 7 -10 7 1 2 36 -4 28 -8 106 -9 174 -1 104 -4 125 -18 133 -9 5 -18 5 -19
1 -1 -4 -5 154 -8 352 -3 198 -2 367 2 375 8 16 11 -7 12 -84 1 -22 7 -41 14
-43 11 -4 18 70 15 157 -1 14 -2 62 -4 108 -2 63 -6 82 -17 82 -11 0 -13 -13
-11 -58 4 -90 0 -127 -11 -116 -15 15 -14 635 1 644 21 14 3 35 -30 35 l-33 0
3 -265 c7 -482 -1 -1770 -10 -1770 -5 0 -9 154 -9 353 -1 575 -14 1579 -21
1621 l-6 40 -33 -70 c-50 -105 -66 -129 -90 -132 -13 -2 -22 2 -22 10 0 22 88
267 107 301 15 26 26 33 57 35 50 4 64 -9 42 -42 -22 -34 -21 -54 2 -33 10 10
30 17 44 17 32 0 49 -36 55 -118 9 -108 13 -1887 4 -1873 -6 9 -11 10 -15 2
-10 -16 2 -31 21 -24 14 5 15 -2 11 -55 l-4 -62 28 0 29 0 -4 418 c-3 229 -4
433 -3 452 0 19 0 260 -2 534 -2 274 -1 510 3 523 3 13 10 21 16 18 6 -5 10
-113 9 -308 -1 -166 0 -367 1 -447 l1 -145 19 85 c43 188 64 261 111 385 46
120 49 132 38 166 -9 25 -9 42 -2 55 6 12 8 58 5 114 -4 67 -2 92 5 85 6 -5
12 -39 14 -75 l3 -65 21 65 21 65 53 9 c45 8 55 7 65 -8 17 -23 7 -55 -21 -68
-31 -14 -48 -68 -50 -153 0 -59 -11 -102 -67 -265 -37 -107 -73 -224 -81 -260
-8 -36 -28 -128 -44 -205 -30 -137 -44 -165 -79 -165 -12 0 -14 -70 -12 -405
l1 -405 124 0 124 0 0 413 c1 647 5 791 25 882 9 44 21 85 26 90 4 6 19 47 33
91 27 83 51 118 81 112 12 -2 23 12 38 49 12 29 25 53 30 53 4 0 7 -36 7 -80
0 -47 4 -80 10 -80 6 0 10 45 10 114 0 94 4 124 23 173 l22 58 5 -77 c7 -114
20 -106 20 13 0 111 2 116 40 142 30 20 60 22 85 4 18 -14 18 -21 -10 -90 -12
-29 32 -21 111 23 84 46 124 52 124 18 0 -12 -9 -78 -20 -147 -10 -69 -38
-244 -60 -388 -23 -145 -52 -325 -65 -400 -14 -75 -23 -138 -21 -141 11 -10
29 15 65 87 44 87 61 105 91 96 29 -9 25 -40 -16 -122 -43 -84 -41 -108 8 -97
18 4 69 6 113 6 68 -1 83 -4 97 -22 16 -20 16 -20 47 11 38 38 76 37 75 -1 -2
-59 -36 -307 -44 -327 -5 -13 -18 -23 -29 -23 -22 0 -55 45 -47 66 5 13 -5 26
-49 63 -10 8 -35 15 -56 17 -44 4 -59 -13 -59 -68 0 -22 -9 -41 -25 -57 -34
-32 -34 -71 0 -71 27 0 63 -15 130 -53 l40 -22 -1 -72 c0 -100 -29 -128 -87
-83 -14 11 -39 20 -55 20 -17 0 -42 4 -56 9 -18 7 -36 5 -66 -6 -40 -16 -42
-16 -63 5 -20 20 -20 25 -9 69 7 26 16 83 19 127 7 98 23 135 63 142 16 4 36
14 44 23 14 15 14 20 2 37 -14 18 -16 18 -43 2 -95 -56 -93 -55 -108 -34 -11
15 -15 16 -19 5 -13 -39 -28 -126 -41 -233 -8 -65 -17 -121 -20 -124 -3 -3 -5
1 -5 8 0 9 -5 7 -14 -5 -15 -21 -11 -39 6 -29 7 5 9 -4 4 -27 -3 -19 -9 -60
-12 -91 l-7 -58 75 0 76 0 7 48 c9 65 28 92 65 92 33 0 50 -22 50 -67 0 -63 8
-73 60 -73 26 0 61 7 76 15 26 13 30 13 40 0 7 -10 28 -15 62 -15 l50 0 23
123 c29 161 32 167 68 167 38 0 41 -6 31 -57 -9 -52 -2 -93 16 -93 21 0 25
-16 15 -61 -17 -74 -8 -79 124 -79 l115 0 0 78 c0 42 -4 509 -10 1037 -5 528
-12 1295 -15 1705 -29 3864 -36 4396 -60 4531 -48 280 -171 462 -382 568 -144
72 -281 91 -638 89 -143 -1 -651 -5 -1130 -9z m1513 -194 c172 -35 312 -134
385 -273 64 -121 66 -142 74 -694 l6 -498 -21 0 c-20 0 -21 -4 -21 -140 0 -77
4 -140 8 -140 4 0 12 5 19 12 21 21 14 -57 -8 -95 -15 -26 -26 -34 -40 -30
-14 4 -22 -2 -30 -21 -16 -42 -20 -30 -14 42 4 43 3 64 -4 57 -12 -13 -72
-305 -62 -305 10 0 30 47 30 71 0 30 28 79 46 79 8 0 17 7 20 15 4 8 10 15 14
15 11 0 -5 -55 -41 -146 -35 -88 -36 -94 -5 -94 14 0 27 -3 29 -7 2 -5 -8 -50
-22 -101 -21 -75 -31 -97 -51 -108 -40 -22 -50 -17 -50 24 l-1 37 -15 -27
c-14 -26 -74 -190 -74 -202 0 -14 21 -3 94 46 43 28 82 61 87 72 4 12 15 38
24 60 13 33 17 37 30 26 18 -15 17 -15 38 25 l15 30 7 -36 c12 -66 4 -90 -40
-114 -22 -13 -45 -33 -52 -46 -12 -24 -93 -69 -124 -69 -23 0 -79 -47 -79 -66
0 -8 -16 -24 -35 -35 -24 -14 -35 -28 -35 -44 0 -13 -11 -32 -24 -42 -19 -14
-30 -43 -51 -128 -40 -163 -41 -175 -18 -175 44 0 59 32 67 136 7 102 16 124
47 124 14 0 21 9 26 31 3 17 16 37 29 46 24 15 33 43 14 43 -14 0 -13 27 1 36
7 4 27 8 45 10 l34 2 0 -49 c0 -50 -13 -62 -38 -37 -8 8 -14 5 -23 -15 -10
-23 -9 -30 5 -46 14 -15 16 -29 11 -65 -4 -25 -12 -47 -19 -47 -6 -1 -17 -2
-25 -3 -20 -2 -33 -42 -17 -55 21 -17 62 3 81 39 12 22 22 30 43 30 29 0 54
34 68 93 10 42 28 47 21 5 -3 -19 -1 -41 4 -49 20 -30 35 21 49 160 8 88 18
148 27 158 14 19 14 -24 -3 -204 -4 -42 -2 -63 5 -63 6 0 11 -20 11 -48 0 -48
-1 -49 -42 -68 -22 -10 -53 -17 -67 -16 -14 1 -40 -6 -57 -17 -25 -15 -33 -29
-40 -67 -5 -26 -14 -49 -20 -51 -6 -2 -25 11 -42 28 l-31 32 -11 -27 c-5 -15
-10 -39 -10 -54 0 -39 -11 -73 -21 -66 -5 3 -9 19 -9 35 0 17 -6 32 -15 36
-22 8 -28 -1 -34 -49 -5 -35 -13 -48 -51 -76 -25 -18 -49 -44 -54 -57 -6 -15
-5 -123 2 -287 13 -289 22 -394 53 -633 11 -88 24 -195 29 -239 4 -43 12 -81
17 -85 10 -7 17 -250 14 -470 -1 -92 2 -148 9 -156 7 -9 10 -58 8 -137 -2 -68
0 -157 4 -199 5 -59 4 -81 -7 -95 -8 -11 -15 -28 -15 -39 0 -27 -19 -45 -46
-45 -15 0 -25 -9 -34 -32 -28 -75 -30 -78 -54 -78 -25 0 -40 22 -31 49 7 23
-42 137 -57 132 -18 -5 -48 -9 -79 -10 -17 -1 -29 -9 -37 -25 -9 -21 -20 -25
-77 -31 -80 -9 -118 4 -113 37 3 22 44 39 91 39 14 0 17 9 16 62 -1 80 -16
190 -18 135 -2 -67 -12 -74 -30 -21 -13 39 -23 51 -53 66 -47 21 -48 34 -12
172 14 55 28 111 31 125 10 53 16 54 28 5 l13 -50 1 45 c0 25 -4 62 -10 83
-14 50 -7 55 26 20 35 -37 85 -129 126 -230 18 -46 34 -81 36 -79 7 7 -47 156
-81 225 -19 37 -51 89 -72 116 -36 48 -36 49 -25 98 6 26 11 66 11 88 0 21 5
39 10 39 6 0 10 46 10 118 0 102 -3 124 -22 162 -33 66 -97 101 -190 108 -40
2 -78 9 -84 13 -6 5 -14 61 -18 127 -11 192 -44 341 -45 205 -1 -39 -4 -79 -8
-89 -4 -11 -3 -15 4 -11 8 5 12 -31 15 -115 4 -128 2 -148 -13 -148 -5 0 -9
42 -9 93 0 50 -4 118 -10 150 -5 33 -10 136 -11 230 -2 178 -4 197 -21 197 -7
0 -8 -15 -4 -40 4 -29 3 -40 -6 -40 -16 0 -14 200 2 230 7 14 7 20 0 20 -5 0
-10 -8 -10 -17 0 -15 -2 -16 -10 -3 -10 16 -13 -14 -12 -120 0 -43 -2 -49 -8
-30 -5 16 -7 -10 -5 -70 3 -67 1 -82 -4 -50 l-8 45 -1 -55 c0 -30 3 -97 6
-148 4 -52 3 -101 -2 -110 -5 -9 -11 -27 -13 -41 -6 -43 -21 -693 -24 -1031
-3 -292 -2 -315 14 -314 54 2 54 3 60 51 3 26 9 49 14 50 39 14 42 37 30 222
-3 56 22 61 77 15 44 -36 46 -41 46 -89 0 -27 -4 -56 -9 -64 -15 -23 1 -53 35
-67 40 -17 44 -40 9 -56 -31 -14 -32 -19 -40 -149 -5 -73 -3 -109 4 -113 22
-14 11 -28 -16 -23 -103 20 -103 20 -103 1 -1 -42 -81 -105 -123 -97 -19 4
-27 0 -32 -16 -7 -23 -43 -29 -50 -8 -2 6 -6 36 -10 65 -5 47 -3 55 19 77 14
14 21 25 16 25 -6 0 -10 7 -10 15 0 8 -4 15 -10 15 -5 0 -10 11 -10 24 l0 24
-180 -4 c-100 -3 -185 -2 -191 2 -6 4 -6 11 2 20 7 8 9 27 5 45 -5 27 -3 30
13 24 13 -4 23 0 30 12 9 17 10 17 24 -1 12 -17 29 -19 174 -19 88 0 165 3
171 7 13 8 17 1346 4 1346 -5 0 -10 -24 -11 -52 -1 -29 -6 -57 -11 -62 -5 -5
-5 -16 1 -27 6 -13 5 -20 -5 -26 -10 -6 -15 -56 -20 -213 -10 -260 -9 -211 -6
-523 1 -148 -1 -271 -3 -274 -3 -2 -8 9 -12 26 -6 29 -36 57 -48 45 -3 -3 1
-21 9 -39 19 -46 19 -47 -21 -39 -22 4 -35 2 -35 -4 0 -7 -10 -8 -30 -2 -28 8
-30 7 -30 -16 0 -14 -4 -22 -10 -19 -5 3 -10 1 -10 -5 0 -12 -24 -9 -67 7 -11
4 -4 -9 20 -35 20 -23 37 -47 37 -53 0 -9 -35 29 -45 48 0 1 -11 0 -23 -4 -27
-7 -29 -23 -2 -23 13 0 20 -7 20 -19 0 -18 -2 -19 -26 -6 -15 7 -33 11 -40 8
-11 -4 -14 5 -14 37 0 33 4 43 20 47 15 4 20 13 19 37 -1 23 -3 25 -6 9 -5
-28 -33 -31 -33 -4 0 14 -10 20 -42 24 -49 7 -58 3 -58 -24 0 -10 -5 -19 -11
-19 -6 0 -9 -6 -6 -12 2 -7 9 -12 13 -11 12 2 5 -79 -7 -91 -5 -5 -2 -14 8
-21 13 -10 13 -15 3 -34 -8 -17 -9 -26 -1 -34 20 -20 11 -27 -38 -27 -39 0
-56 -5 -77 -25 -42 -39 -64 -42 -87 -11 -24 33 -39 33 -31 0 6 -24 5 -26 -17
-19 -19 7 -22 5 -13 -6 8 -10 7 -20 -1 -37 -12 -21 -14 -22 -29 -7 -15 15 -16
13 -16 -24 0 -23 -4 -41 -9 -41 -5 0 -18 -26 -29 -57 -11 -32 -21 -50 -21 -41
-1 10 5 35 13 55 21 55 26 163 9 163 -8 0 -11 5 -8 10 10 16 19 12 38 -17 l17
-28 -2 30 c-4 69 2 105 17 105 8 0 23 4 33 9 9 5 44 13 76 18 72 10 83 28 26
43 -40 11 -102 9 -166 -5 -28 -6 -28 -6 -9 10 19 16 17 17 -37 13 -32 -3 -58
-2 -59 1 0 3 -1 25 -2 49 l-2 43 20 -25 c12 -14 26 -26 32 -26 15 0 24 26 16
48 -5 13 -4 15 8 6 9 -7 51 -9 117 -6 l102 4 0 34 c0 23 6 37 20 44 26 14 33
62 20 143 -6 37 -8 72 -5 77 3 5 23 0 44 -11 35 -18 39 -25 45 -68 4 -27 2
-61 -4 -76 -7 -17 -7 -32 -2 -37 14 -14 67 -5 69 12 16 117 26 160 39 160 17
0 17 -9 -1 -85 -18 -74 -18 -85 -2 -85 6 0 20 -14 30 -31 15 -28 21 -31 51
-26 19 3 39 0 46 -6 10 -10 12 -7 7 10 -3 16 0 24 13 28 20 6 20 -45 5 620 -5
218 -16 359 -29 373 -4 3 -24 1 -45 -4 l-38 -11 -7 66 c-9 104 -7 534 4 682
18 227 26 263 161 671 155 469 184 580 198 747 9 105 0 155 -29 171 -36 19
-80 -20 -80 -72 0 -13 -9 -36 -20 -53 -19 -28 -60 -111 -88 -178 -7 -15 -28
-37 -47 -48 -19 -12 -35 -26 -35 -31 0 -18 51 2 75 30 17 19 27 24 34 16 16
-15 -29 -98 -56 -102 -12 -2 -26 -15 -32 -30 -24 -63 -69 -213 -85 -284 -10
-43 -22 -80 -27 -84 -5 -3 -9 -13 -9 -22 0 -9 -5 -34 -11 -54 -8 -30 -15 -38
-34 -38 -14 0 -32 -11 -44 -26 -25 -32 -26 -44 -6 -44 8 0 15 5 15 10 0 6 9
10 19 10 11 0 21 6 23 13 6 17 58 17 58 -1 0 -8 -6 -12 -14 -9 -12 5 -14 -3
-13 -35 1 -27 -3 -42 -12 -46 -9 -3 -12 0 -9 10 4 8 3 20 -2 27 -11 19 -20
-25 -16 -79 2 -25 0 -49 -4 -55 -4 -5 -10 -22 -14 -37 -8 -33 -66 -68 -66 -39
0 9 5 22 11 28 5 5 12 33 14 62 3 38 0 51 -10 51 -15 0 -30 -35 -20 -50 3 -5
-2 -17 -10 -27 -34 -38 -65 -78 -65 -85 0 -5 -7 -8 -15 -8 -8 0 -15 -6 -15
-14 0 -18 -23 -27 -41 -16 -14 10 -49 -14 -49 -34 0 -6 -8 -20 -17 -31 -15
-19 -15 -18 -10 17 7 49 51 194 87 288 97 252 147 373 203 491 80 166 77 158
59 194 -28 57 -72 88 -72 50 0 -18 -12 -19 -27 -4 -16 16 -33 2 -33 -26 0 -13
-11 -88 -25 -167 -24 -141 -56 -253 -174 -603 -62 -185 -80 -286 -95 -516 -3
-47 -12 -106 -20 -132 -8 -26 -12 -57 -10 -70 15 -83 15 -94 0 -110 -9 -8 -16
-25 -16 -37 0 -36 -24 -150 -32 -150 -4 0 -10 -15 -13 -34 -4 -21 -25 -54 -54
-84 -37 -41 -55 -52 -89 -58 -81 -13 -84 -33 -73 -494 2 -85 0 -191 -5 -235
-9 -77 -10 -80 -39 -89 -16 -6 -31 -11 -33 -12 -2 -1 3 -12 10 -23 25 -40 -23
-79 -56 -46 -10 11 -14 25 -10 40 4 14 0 33 -10 47 -9 12 -16 32 -16 44 0 11
-9 29 -20 39 -19 17 -19 19 -3 46 20 34 20 34 60 14 40 -20 78 -4 93 38 18 54
12 84 -26 127 -35 39 -36 41 -20 65 21 31 21 93 0 116 -15 17 -15 23 0 83 21
85 21 89 -9 124 -17 21 -40 34 -71 40 -42 9 -51 7 -99 -19 -39 -21 -67 -29
-103 -29 -43 0 -54 -4 -71 -26 -12 -15 -21 -32 -21 -38 0 -7 -14 -25 -30 -41
-36 -34 -90 -138 -90 -172 0 -20 5 -23 35 -23 40 0 44 -13 20 -60 l-16 -30 34
0 c18 0 39 -6 46 -13 11 -9 14 -9 18 1 3 6 16 12 29 12 24 0 104 69 104 90 0
15 27 12 44 -6 9 -8 16 -28 16 -44 0 -23 -14 -41 -72 -92 -40 -35 -97 -87
-126 -116 -58 -57 -116 -94 -138 -85 -8 3 -14 1 -14 -4 0 -5 -13 -25 -30 -43
-16 -18 -30 -40 -30 -47 0 -7 -6 -13 -13 -13 -23 0 -78 -78 -84 -118 -4 -24
-19 -51 -43 -77 -21 -22 -40 -51 -43 -65 -16 -73 -52 -169 -103 -276 -13 -28
-24 -56 -24 -61 0 -9 -79 -167 -98 -198 -4 -5 -7 -12 -8 -15 -4 -25 -67 -150
-75 -150 -4 0 -17 -21 -29 -47 -12 -27 -42 -76 -66 -111 -24 -35 -44 -67 -44
-71 0 -5 -7 -14 -14 -21 -8 -6 -20 -28 -27 -48 -13 -41 -67 -112 -85 -112 -18
0 -39 -31 -36 -51 2 -12 -6 -19 -28 -24 -16 -4 -28 -10 -25 -15 3 -5 1 -11 -5
-15 -5 -3 -10 -18 -10 -32 0 -13 -9 -36 -20 -50 -11 -14 -20 -32 -20 -40 0 -8
-5 -11 -10 -8 -10 6 -70 -52 -70 -67 0 -4 -13 -14 -29 -23 -16 -8 -33 -25 -36
-37 -22 -76 -37 -105 -54 -101 -11 3 -24 -8 -39 -36 -15 -26 -30 -41 -42 -41
-23 0 -41 -30 -37 -62 1 -13 -3 -22 -10 -21 -7 2 -21 -11 -33 -27 -12 -17 -28
-30 -36 -30 -8 0 -19 -11 -24 -25 -5 -14 -14 -25 -19 -25 -6 0 -33 -23 -61
-51 -27 -27 -54 -48 -59 -44 -5 3 -12 -4 -16 -14 -4 -13 -24 -25 -60 -36 -30
-8 -58 -22 -63 -31 -10 -17 -18 414 -28 1541 -7 727 -9 697 40 706 10 2 28 23
40 46 11 23 26 43 31 43 6 0 44 17 85 38 41 21 104 44 140 51 36 7 93 28 126
47 34 18 86 39 115 45 45 10 61 20 109 70 45 47 63 59 87 59 47 0 57 -22 63
-129 l5 -96 49 3 c29 1 57 9 68 19 24 22 23 71 -2 98 -12 13 -25 46 -30 81
-16 96 -12 143 14 188 13 23 27 67 31 98 6 48 4 64 -18 110 -32 70 -82 136
-111 150 -21 9 -40 2 -143 -50 -65 -34 -134 -64 -153 -67 -52 -8 -97 -39 -120
-84 -11 -22 -35 -57 -53 -77 -37 -43 -145 -124 -164 -124 -7 0 -13 -4 -13 -8
0 -4 -17 -27 -37 -50 -33 -36 -47 -44 -96 -53 -33 -6 -62 -7 -65 -4 -8 8 -9
35 -27 2260 -8 1107 -10 1771 -4 1825 25 227 121 380 290 466 118 59 162 65
480 71 l287 5 15 -23 c8 -13 17 -54 20 -91 8 -108 61 -193 151 -241 l41 -22
1060 3 c707 2 1078 6 1115 14 76 14 122 40 164 91 45 56 57 85 67 180 4 43 13
85 19 92 14 17 65 21 338 23 159 2 232 -2 290 -13z m462 -1969 l0 -83 -32 -7
c-17 -3 -36 -2 -41 3 -17 17 41 171 64 171 5 0 9 -38 9 -84z m-1667 -561 c-3
-9 -8 -14 -10 -11 -3 3 -2 9 2 15 9 16 15 13 8 -4z m-27 -81 c-4 -9 -9 -15
-11 -12 -3 3 -3 13 1 22 4 9 9 15 11 12 3 -3 3 -13 -1 -22z m44 -14 c0 -5 -4
-10 -10 -10 -5 0 -10 5 -10 10 0 6 5 10 10 10 6 0 10 -4 10 -10z m1321 -83
c-13 -13 -26 -3 -16 12 3 6 11 8 17 5 6 -4 6 -10 -1 -17z m324 -496 c-8 -17
-15 -58 -16 -93 -1 -74 -11 -119 -23 -100 -4 7 -12 72 -18 144 l-10 132 32 26
c38 31 38 68 0 87 -35 17 -31 35 10 54 l35 17 3 -119 c2 -91 -1 -126 -13 -148z
m-91 231 c9 -14 -24 -52 -44 -52 -28 0 -34 19 -14 41 18 20 49 25 58 11z m-19
-334 c0 -189 1 -197 23 -220 30 -33 28 -53 -9 -68 -21 -9 -32 -22 -36 -41 -6
-32 -7 -33 -32 -19 -11 5 -37 6 -62 2 -38 -6 -44 -11 -51 -40 -8 -31 -10 -32
-31 -17 -28 20 -74 19 -85 -1 -14 -25 -32 -7 -32 31 0 27 7 38 33 56 17 12 39
31 48 42 16 20 17 20 66 2 56 -20 83 -16 83 14 0 11 10 29 22 40 21 20 21 25
15 205 -6 163 -5 186 9 201 34 34 38 14 39 -187z m-1757 127 c-11 -24 -28 -34
-28 -16 0 21 13 41 26 41 11 0 11 -5 2 -25z m1481 -195 c1 -70 6 -83 34 -93 9
-3 17 -11 17 -16 0 -14 -100 -82 -110 -76 -6 4 -10 28 -10 54 0 38 5 52 26 70
35 31 31 77 -7 73 -43 -4 -43 23 -1 70 l37 41 6 -29 c4 -16 7 -58 8 -94z m148
-67 c-3 -10 -5 -4 -5 12 0 17 2 24 5 18 2 -7 2 -21 0 -30z m-1000 -270 c-3
-10 -5 -2 -5 17 0 19 2 27 5 18 2 -10 2 -26 0 -35z m27 32 c-4 -8 -8 -15 -10
-15 -2 0 -4 7 -4 15 0 8 4 15 10 15 5 0 7 -7 4 -15z m1076 -29 c0 -8 -5 -18
-10 -21 -6 -4 -8 -10 -5 -15 3 -5 1 -11 -5 -15 -11 -7 -14 24 -4 49 8 20 24
21 24 2z m-1083 -33 c-3 -10 -5 -4 -5 12 0 17 2 24 5 18 2 -7 2 -21 0 -30z m0
-74 c1 -27 -2 -51 -7 -54 -6 -4 -11 6 -11 22 -1 15 -2 40 -3 54 -1 14 3 26 9
26 5 0 11 -22 12 -48z m-692 -4 c0 -10 -6 -20 -12 -22 -8 -3 -13 5 -13 22 0
17 5 25 13 23 6 -3 12 -13 12 -23z m1697 -155 c2 -104 -1 -166 -7 -168 -11 -2
-29 312 -20 337 15 40 25 -20 27 -169z m-1792 151 c0 -11 -5 -23 -11 -27 -15
-9 -33 12 -26 30 9 23 37 20 37 -3z m1678 -44 c2 -26 -1 -47 -6 -47 -12 0 -22
34 -22 73 0 49 25 25 28 -26z m-53 -18 c9 -41 -2 -99 -20 -99 -19 0 -39 98
-24 116 19 23 37 16 44 -17z m111 -84 c-4 -14 -11 -23 -16 -20 -12 7 -13 45
-3 71 6 16 7 16 16 -4 5 -11 7 -32 3 -47z m-1821 -7 c10 -48 10 -61 -1 -65
-12 -4 -24 27 -24 65 0 12 4 22 10 22 5 0 12 -10 15 -22z m826 -21 c-16 -16
-26 0 -10 19 9 11 15 12 17 4 2 -6 -1 -17 -7 -23z m974 -144 c-4 -21 -9 -42
-12 -46 -9 -15 -23 16 -23 51 0 26 4 32 21 32 19 0 21 -4 14 -37z m68 -197
c15 -19 27 -39 27 -44 0 -4 -13 -21 -29 -36 -34 -32 -65 -31 -69 2 -3 22 27
112 38 112 3 0 17 -16 33 -34z m-2174 -23 c-15 -18 -34 -1 -25 22 5 14 9 15
21 5 12 -10 13 -16 4 -27z m1218 2 c8 -22 -27 -127 -41 -122 -11 4 -21 99 -12
123 7 19 45 18 53 -1z m-744 -17 c4 -12 2 -25 -3 -28 -6 -3 -13 -42 -17 -86
-7 -76 -7 -78 -14 -34 -11 65 -10 115 1 144 12 32 26 33 33 4z m-2067 -22
c-16 -26 -56 -53 -56 -39 0 12 61 75 67 69 3 -3 -2 -17 -11 -30z m1194 -45 c0
-24 -18 -37 -32 -23 -8 8 -7 16 2 27 17 21 30 19 30 -4z m2831 -803 l4 -667
-40 -42 c-98 -102 -182 -80 -226 61 -44 137 -32 595 22 820 43 185 104 368
144 435 31 54 76 92 86 73 4 -7 9 -313 10 -680z m-1974 630 c-3 -8 -6 -5 -6 6
-1 11 2 17 5 13 3 -3 4 -12 1 -19z m1689 -64 c-3 -9 -6 -18 -6 -20 0 -2 -7 -4
-15 -4 -18 0 -19 12 -3 28 17 17 31 15 24 -4z m-2106 -154 c0 -5 -2 -10 -4
-10 -3 0 -8 5 -11 10 -3 6 -1 10 4 10 6 0 11 -4 11 -10z m40 -10 c0 -5 -2 -10
-4 -10 -3 0 -8 5 -11 10 -3 6 -1 10 4 10 6 0 11 -4 11 -10z m69 -67 c-7 -81
-3 -96 22 -88 21 7 27 -10 7 -18 -8 -3 -5 -6 5 -6 10 -1 17 -7 15 -13 -3 -8
-20 -11 -48 -9 -41 3 -43 2 -29 -16 13 -17 13 -17 -4 -4 -10 8 -15 21 -12 32
3 9 2 20 -3 23 -11 6 -25 -51 -16 -65 3 -5 -10 -12 -28 -16 l-33 -8 40 -5 c37
-5 40 -8 43 -37 2 -18 -2 -34 -7 -34 -6 -1 -16 -2 -21 -3 -11 -1 -30 -25 -30
-37 0 -4 11 -10 25 -13 14 -4 25 -11 25 -17 0 -8 -5 -7 -15 1 -11 9 -15 9 -15
1 0 -6 11 -16 25 -21 46 -18 24 -40 -40 -40 -18 0 -49 -7 -70 -16 -35 -14 -38
-14 -57 5 -22 25 -50 28 -42 6 4 -8 11 -15 17 -15 6 0 8 -3 5 -6 -4 -3 -16 0
-29 6 -20 11 -21 10 -17 -15 3 -14 2 -23 -2 -18 -4 4 -11 31 -15 59 l-7 52 52
11 c70 15 83 14 112 -9 14 -10 28 -16 32 -13 4 4 -3 15 -16 24 -18 14 -20 20
-10 32 17 20 -14 29 -93 27 -209 -6 -355 -4 -357 5 -2 5 14 12 35 16 20 3 48
16 61 28 20 19 24 20 36 6 24 -29 127 -10 160 29 15 20 76 21 111 2 25 -13 26
-12 26 21 0 43 47 96 76 87 17 -5 19 -2 15 19 -3 14 -1 32 4 39 6 8 8 -2 6
-29 -3 -38 -1 -43 18 -43 23 0 34 35 34 113 0 20 3 37 8 37 4 0 5 -30 1 -67z
m-42 -35 c-3 -8 -6 -5 -6 6 -1 11 2 17 5 13 3 -3 4 -12 1 -19z m598 -20 c-4
-18 -11 -40 -16 -48 -7 -13 -8 -13 -9 1 0 32 13 79 22 79 6 0 7 -14 3 -32z
m1405 -31 c0 -24 -3 -28 -10 -17 -13 20 -13 63 0 55 6 -3 10 -21 10 -38z
m-2512 -58 c2 -13 -7 -18 -35 -21 -21 -3 -39 -4 -40 -3 -2 0 5 11 13 24 18 25
57 25 62 0z m670 -22 c2 -10 -3 -17 -12 -17 -10 0 -16 9 -16 21 0 24 23 21 28
-4z m-89 -64 c-1 -38 -1 -38 -9 -9 -8 27 -6 46 6 46 2 0 4 -17 3 -37z m-919
-19 c0 -8 -5 -12 -10 -9 -6 4 -8 11 -5 16 9 14 15 11 15 -7z m410 -209 c0 -19
-8 -57 -19 -84 -11 -29 -15 -53 -10 -58 6 -6 -12 -62 -41 -136 -29 -72 -65
-192 -85 -279 -20 -84 -39 -156 -43 -159 -7 -7 -141 7 -149 15 -15 14 13 22
59 15 29 -4 57 -3 61 1 5 4 24 74 42 156 19 82 48 189 64 238 17 50 31 100 31
113 0 13 6 23 13 24 10 0 10 2 0 6 -20 7 -15 52 7 80 20 26 28 59 11 49 -5 -3
-8 5 -8 19 0 18 6 25 26 28 14 2 29 5 34 6 4 0 7 -15 7 -34z m533 -20 c-3 -15
-71 -26 -106 -16 l-32 8 35 11 c42 13 106 11 103 -3z m-279 -208 c3 -56 8
-115 11 -132 7 -54 8 -90 2 -105 -4 -8 -12 -71 -19 -140 -13 -123 -13 -124
-43 -140 -16 -8 -32 -16 -35 -18 -9 -6 25 -22 46 -22 21 0 22 -4 18 -77 -2
-42 -6 -78 -9 -81 -2 -3 1 -14 6 -25 10 -18 9 -19 -17 -13 -16 4 -38 8 -49 10
-11 3 -27 7 -37 11 -11 4 -18 0 -23 -14 -10 -31 -39 -42 -117 -45 -52 -2 -74
-8 -83 -20 -13 -18 -35 -22 -35 -6 0 13 -37 13 -42 0 -4 -11 -86 -14 -246 -10
-110 3 -113 2 -137 -24 -18 -20 -34 -26 -64 -26 -58 0 -88 -15 -108 -54 -11
-21 -34 -44 -56 -55 -20 -10 -37 -18 -37 -16 0 9 42 121 54 143 8 15 23 52 32
82 28 89 55 144 64 130 4 -7 11 -45 15 -84 8 -90 14 -101 51 -92 60 15 64 26
58 160 -5 98 -10 125 -25 142 -35 38 -20 54 55 54 29 0 51 -7 66 -20 13 -11
29 -20 37 -20 7 0 13 -4 13 -10 0 -5 -8 -10 -18 -10 -26 0 -42 -20 -42 -54
l-1 -31 -17 30 -16 30 -11 -85 c-14 -111 -8 -119 66 -90 30 12 68 32 86 46 41
31 107 33 123 4 6 -11 18 -20 26 -20 19 0 104 85 103 103 0 9 -2 9 -6 0 -6
-15 -33 -17 -33 -3 0 5 14 19 30 32 20 14 30 30 30 48 0 49 80 371 113 453 26
63 38 83 55 85 14 2 29 20 46 56 l25 53 44 -14 44 -14 7 -102z m-572 -65 c1
-156 -4 -188 -23 -177 -13 9 -11 289 3 320 6 14 13 23 16 21 2 -3 4 -76 4
-164z m844 156 c4 -6 2 -14 -5 -16 -7 -2 -20 -13 -29 -23 -12 -14 -19 -16 -29
-7 -21 17 -16 46 10 51 40 8 46 7 53 -5z m224 -12 c0 -3 -4 -8 -10 -11 -5 -3
-10 -1 -10 4 0 6 5 11 10 11 6 0 10 -2 10 -4z m387 -32 c-3 -3 -12 -4 -19 -1
-8 3 -5 6 6 6 11 1 17 -2 13 -5z m-477 -19 c-12 -15 -30 -12 -30 6 0 5 10 9
21 9 18 0 19 -2 9 -15z m-173 -20 c2 -7 -3 -27 -11 -44 -18 -34 -21 -55 -6
-46 6 3 10 1 10 -4 0 -6 -9 -11 -19 -11 -13 0 -18 -5 -14 -18 2 -10 -11 -62
-31 -117 -45 -132 -81 -261 -108 -395 -19 -90 -26 -110 -40 -110 -25 0 -24 15
22 236 35 169 78 314 110 373 6 12 6 28 -2 47 -9 25 -7 37 10 70 18 36 25 41
47 36 15 -2 29 -10 32 -17z m1859 -40 c3 -14 3 -38 0 -53 -4 -15 -10 -43 -14
-62 -8 -38 -50 -67 -80 -55 -15 6 -15 8 4 23 12 9 30 22 40 28 18 11 18 13 2
42 -10 16 -18 38 -18 47 0 52 54 77 66 30z m-1326 -36 c0 -5 -5 -9 -10 -9 -6
0 -16 -11 -22 -25 -6 -14 -17 -25 -24 -25 -7 0 -19 -10 -25 -22 -8 -14 -14
-18 -17 -10 -7 23 -25 13 -17 -10 3 -13 7 -44 8 -70 1 -25 5 -50 9 -54 5 -4 2
-14 -4 -22 -7 -8 -18 -31 -26 -51 -56 -154 -95 -287 -122 -411 -53 -247 -55
-255 -76 -258 -41 -5 -46 9 -29 87 19 89 19 117 1 124 -9 4 -13 26 -14 75 0
57 -4 74 -20 90 -17 17 -20 29 -15 59 7 48 9 50 31 30 10 -10 26 -17 36 -17 9
0 26 -4 36 -10 16 -9 21 -2 41 58 12 37 37 102 54 144 28 65 31 79 19 89 -20
17 -18 32 16 99 17 33 30 71 30 85 0 16 7 28 18 31 9 3 27 11 39 16 17 8 26 8
38 -2 13 -10 15 -9 15 8 0 15 5 20 15 16 8 -4 15 -10 15 -15z m46 -16 c-11
-11 -19 6 -11 24 8 17 8 17 12 0 3 -10 2 -21 -1 -24z m-105 -200 c-8 -15 -10
-15 -11 -2 0 17 10 32 18 25 2 -3 -1 -13 -7 -23z m-1164 -239 c15 -3 20 -9 16
-20 -6 -16 -16 -15 -100 8 -24 7 -43 16 -43 21 0 7 73 2 127 -9z m1071 -237
c1 23 7 45 13 48 17 11 24 -4 11 -25 -16 -26 -15 -45 2 -59 11 -9 15 -5 19 19
4 16 11 30 16 30 12 0 31 -56 31 -89 -1 -24 -2 -24 -14 -9 -12 16 -14 16 -35
-3 -24 -22 -26 -76 -3 -71 6 1 12 -7 12 -17 0 -11 5 -23 10 -26 12 -8 13 -45
1 -45 -16 0 -36 32 -46 74 -11 44 -45 65 -45 27 0 -11 -4 -22 -9 -25 -5 -4
-12 -24 -16 -45 -7 -41 -29 -80 -40 -70 -6 6 42 222 68 304 l12 40 6 -50 6
-50 1 42z m142 -34 c-1 -31 -3 -35 -11 -20 -5 9 -17 17 -24 17 -8 0 -15 9 -15
20 0 15 7 20 25 20 22 0 25 -4 25 -37z m-12 -109 c-10 -10 -28 6 -28 24 0 15
1 15 17 -1 9 -9 14 -19 11 -23z m-10 -128 c3 -12 -1 -17 -10 -14 -7 3 -15 13
-16 22 -3 12 1 17 10 14 7 -3 15 -13 16 -22z m-768 -206 c0 -36 -12 -38 -33
-6 -17 26 -13 36 15 36 13 0 18 -8 18 -30z m-1131 -73 c14 -18 4 -27 -28 -27
-15 0 -43 -14 -64 -31 -20 -17 -34 -24 -31 -15 6 15 92 86 104 86 4 0 13 -6
19 -13z m2508 -280 c-1 -45 -3 -5 -3 88 0 94 2 130 3 82 2 -48 2 -125 0 -170z
m-1385 91 c-12 -12 -62 1 -68 17 -3 7 12 31 33 55 l38 42 3 -52 c2 -29 -1 -57
-6 -62z m-1312 -10 c-5 -13 -11 -36 -15 -51 -3 -17 -32 -53 -67 -88 -102 -97
-96 -80 30 99 44 62 70 82 52 40z m511 -43 c126 -27 107 -40 -70 -50 -146 -8
-157 -2 -91 43 39 26 64 27 161 7z m3367 -38 c3 -50 -7 -59 -49 -37 -25 14
-26 65 -1 79 33 20 47 9 50 -42z m-1514 -169 c-6 -111 -14 -93 -13 28 1 75 3
99 9 76 4 -18 6 -65 4 -104z m337 -22 c0 -48 -2 -90 -5 -93 -3 -4 -6 38 -6 92
0 54 2 96 5 93 3 -2 5 -44 6 -92z m-2401 26 c3 -4 61 -8 130 -10 148 -3 250
-16 293 -39 18 -9 52 -18 76 -19 54 -4 113 -23 106 -33 -2 -5 -42 -11 -87 -15
-46 -3 -128 -11 -183 -16 -55 -5 -139 -13 -187 -16 l-87 -7 -36 39 c-20 22
-55 58 -77 81 -35 36 -38 42 -22 46 22 6 66 -1 74 -11z m-103 -116 c32 -28 27
-38 -19 -41 -57 -4 -85 24 -56 53 19 19 44 14 75 -12z m2507 -68 c3 -20 1 -49
-4 -64 -6 -23 -8 -15 -9 40 -1 73 5 84 13 24z"/>
<path d="M3912 5926 c6 -34 6 -84 0 -137 -11 -88 -10 -95 8 -84 14 9 70 120
70 140 0 32 -61 135 -80 135 -4 0 -3 -24 2 -54z"/>
<path d="M3707 5953 c-13 -13 -7 -32 8 -27 8 4 15 12 15 20 0 15 -12 19 -23 7z"/>
<path d="M4278 5644 c-5 -4 -8 -21 -8 -38 0 -21 3 -27 11 -19 6 6 9 23 7 38
-2 15 -6 23 -10 19z"/>
<path d="M4272 5550 c0 -14 2 -19 5 -12 2 6 2 18 0 25 -3 6 -5 1 -5 -13z"/>
<path d="M3006 5532 c-3 -5 -12 -42 -22 -83 -9 -41 -21 -95 -27 -121 -21 -90
16 -72 70 35 33 67 34 72 23 113 -13 45 -34 72 -44 56z"/>
<path d="M4265 5511 c-3 -5 -1 -12 5 -16 5 -3 10 1 10 9 0 18 -6 21 -15 7z"/>
<path d="M4293 5467 c-2 -30 -2 -31 8 -8 5 14 6 28 1 33 -4 4 -9 -7 -9 -25z"/>
<path d="M4261 5454 c0 -11 3 -14 6 -6 3 7 2 16 -1 19 -3 4 -6 -2 -5 -13z"/>
<path d="M4191 5378 c-5 -38 -43 -285 -50 -323 -12 -63 -6 -71 9 -13 7 23 16
51 21 61 5 10 7 22 4 27 -3 4 2 59 10 120 9 62 14 117 11 123 -2 7 -5 9 -5 5z"/>
<path d="M2609 5314 c-11 -26 -23 -60 -25 -76 l-3 -30 19 24 c10 14 22 37 25
51 4 15 11 30 16 33 12 7 11 44 -1 44 -5 0 -19 -21 -31 -46z"/>
<path d="M4240 5340 c0 -11 2 -20 4 -20 2 0 6 9 9 20 3 11 1 20 -4 20 -5 0 -9
-9 -9 -20z"/>
<path d="M4191 5194 c0 -11 3 -14 6 -6 3 7 2 16 -1 19 -3 4 -6 -2 -5 -13z"/>
<path d="M2158 5098 c-30 -35 -72 -141 -159 -403 -43 -132 -88 -267 -99 -300
-12 -33 -28 -85 -36 -115 -18 -67 -53 -379 -54 -472 l0 -68 -47 -25 c-27 -14
-60 -35 -75 -47 -23 -18 -31 -20 -53 -10 -43 20 -90 15 -124 -13 -48 -41 -54
-76 -41 -228 16 -174 32 -243 66 -278 l26 -27 -17 -51 c-16 -49 -16 -53 2 -84
15 -24 26 -32 48 -32 28 0 30 3 39 49 6 34 5 70 -3 110 -10 54 -9 70 9 141 12
43 24 83 27 89 8 12 63 -102 63 -131 0 -27 58 -63 64 -41 2 7 11 45 20 83 10
44 34 99 65 150 26 44 54 98 62 120 9 27 39 64 91 114 l78 75 0 62 c0 34 -9
115 -20 179 -12 69 -20 163 -20 229 0 144 25 243 125 490 68 169 75 192 75
255 0 88 -17 172 -38 189 -24 18 -51 15 -74 -10z"/>
<path d="M4842 4880 c0 -19 2 -27 5 -17 2 9 2 25 0 35 -3 9 -5 1 -5 -18z"/>
<path d="M3802 3990 c0 -14 2 -19 5 -12 2 6 2 18 0 25 -3 6 -5 1 -5 -13z"/>
<path d="M3660 3979 c0 -11 4 -18 10 -14 5 3 7 12 3 20 -7 21 -13 19 -13 -6z"/>
<path d="M2266 3938 c-4 -23 -14 -66 -23 -95 -9 -29 -14 -55 -11 -59 8 -7 81
15 89 28 7 11 -28 148 -41 161 -4 5 -11 -11 -14 -35z"/>
<path d="M4228 3944 c-4 -34 3 -50 16 -37 9 10 7 73 -3 73 -5 0 -11 -16 -13
-36z"/>
<path d="M3665 3940 c3 -5 8 -10 11 -10 2 0 4 5 4 10 0 6 -5 10 -11 10 -5 0
-7 -4 -4 -10z"/>
<path d="M3785 3922 c1 -10 7 -28 13 -42 10 -24 11 -24 11 11 1 22 -4 39 -12
42 -8 3 -13 -1 -12 -11z"/>
<path d="M2170 3881 c-36 -10 -31 -34 8 -42 35 -7 50 6 38 36 -6 16 -8 17 -46
6z"/>
<path d="M2810 3829 c0 -5 5 -7 10 -4 6 3 10 8 10 11 0 2 -4 4 -10 4 -5 0 -10
-5 -10 -11z"/>
<path d="M2377 3731 c-48 -45 -139 -91 -177 -91 -14 0 -41 -11 -60 -25 l-34
-25 55 0 c30 0 72 -5 94 -10 27 -6 53 -6 80 2 22 6 69 14 105 17 58 5 65 9 68
29 5 34 -16 87 -45 116 -14 14 -30 26 -35 26 -4 0 -27 -17 -51 -39z"/>
<path d="M3641 3640 c-5 -63 -1 -489 5 -728 7 -230 7 -233 28 -230 24 3 23
-52 12 548 -5 297 -9 367 -20 375 -8 6 -16 24 -19 40 -4 29 -4 29 -6 -5z m36
-702 c-3 -7 -5 -2 -5 12 0 14 2 19 5 13 2 -7 2 -19 0 -25z m0 -70 c-3 -8 -6
-5 -6 6 -1 11 2 17 5 13 3 -3 4 -12 1 -19z m0 -70 c-3 -7 -5 -2 -5 12 0 14 2
19 5 13 2 -7 2 -19 0 -25z"/>
<path d="M1192 2898 c-6 -6 -12 -29 -12 -49 0 -46 27 -69 81 -69 26 0 47 -8
69 -27 30 -24 32 -30 26 -70 -7 -56 -36 -142 -74 -221 -42 -89 -66 -190 -53
-225 12 -31 37 -45 52 -30 6 6 26 73 44 148 27 110 47 164 97 263 54 107 68
127 95 138 28 11 35 11 48 -2 8 -9 15 -26 15 -40 0 -13 3 -24 8 -24 10 0 112
139 112 154 0 19 -62 35 -82 22 -12 -7 -24 -7 -40 1 -13 6 -61 14 -107 16 -73
5 -88 3 -111 -15 -34 -25 -81 -18 -95 15 -11 25 -54 34 -73 15z"/>
<path d="M3307 2852 c-11 -16 2 -117 13 -105 4 4 4 33 1 63 -4 35 -9 50 -14
42z"/>
<path d="M4358 2730 c2 -22 6 -40 8 -40 2 0 4 18 4 40 0 22 -3 40 -8 40 -4 0
-6 -18 -4 -40z"/>
<path d="M535 2730 c-9 -15 3 -60 15 -60 13 0 13 57 1 65 -5 3 -13 0 -16 -5z"/>
<path d="M3656 2652 c-7 -12 7 -28 24 -27 24 0 25 35 1 35 -11 0 -22 -4 -25
-8z"/>
<path d="M4372 2630 c0 -14 2 -19 5 -12 2 6 2 18 0 25 -3 6 -5 1 -5 -13z"/>
<path d="M1764 2612 c-9 -5 -8 -11 2 -20 8 -7 14 -11 14 -8 0 2 3 11 6 20 6
17 -3 21 -22 8z"/>
<path d="M1701 2556 c-7 -8 -23 -17 -36 -20 -26 -7 -32 -20 -15 -31 6 -3 10
-17 10 -29 0 -22 4 -24 66 -24 55 0 65 2 62 16 -1 9 3 27 10 40 12 20 10 23
-15 33 -15 6 -36 15 -45 20 -23 12 -23 12 -37 -5z"/>
<path d="M532 2457 c-9 -22 -10 -66 -2 -184 6 -86 13 -160 16 -164 3 -5 12 -9
20 -9 17 0 19 54 3 120 -6 25 -14 95 -18 155 -6 98 -8 107 -19 82z"/>
<path d="M1690 2424 c-11 -13 -10 -18 7 -36 17 -17 24 -18 43 -8 l22 12 -23
24 c-26 28 -32 29 -49 8z"/>
<path d="M1550 2421 c-24 -4 -36 -12 -38 -26 -2 -11 -8 -24 -13 -29 -13 -15
-11 -23 9 -30 9 -3 25 -11 35 -18 15 -11 20 -10 31 5 7 9 23 17 34 17 26 0 38
18 23 33 -6 6 -11 21 -11 34 0 24 -6 26 -70 14z m20 -45 c0 -11 -19 -15 -25
-6 -3 5 1 10 9 10 9 0 16 -2 16 -4z"/>
<path d="M3258 2398 c9 -9 15 -9 24 0 9 9 7 12 -12 12 -19 0 -21 -3 -12 -12z"/>
<path d="M3840 2381 c0 -5 4 -12 10 -16 5 -3 7 -12 4 -19 -3 -7 2 -18 10 -25
12 -10 17 -6 30 20 9 18 15 33 14 34 -11 10 -68 15 -68 6z"/>
<path d="M3932 2331 c3 -26 32 -50 44 -38 5 4 -5 20 -20 35 l-28 27 4 -24z"/>
<path d="M1544 2225 c-4 -8 -14 -15 -24 -15 -23 0 -45 -26 -30 -35 5 -3 10
-17 10 -30 0 -25 21 -38 45 -29 9 4 29 1 46 -6 25 -11 32 -11 39 0 5 8 6 18 3
23 -3 4 3 17 12 27 15 16 15 22 5 35 -7 8 -20 15 -30 15 -10 0 -23 7 -30 15
-7 8 -19 15 -27 15 -7 0 -16 -7 -19 -15z"/>
<path d="M1410 2110 c-11 -7 -12 -12 -3 -21 15 -15 48 -7 48 11 0 18 -24 24
-45 10z"/>
<path d="M1545 2031 c-8 -15 3 -31 21 -31 9 0 14 7 12 17 -4 20 -24 28 -33 14z"/>
<path d="M1495 2000 c-3 -6 1 -13 10 -16 19 -8 30 0 20 15 -8 14 -22 14 -30 1z"/>
<path d="M1527 1943 c-12 -12 -7 -31 10 -37 24 -9 39 9 23 29 -14 16 -23 19
-33 8z"/>
<path d="M2745 2550 c3 -5 13 -10 21 -10 8 0 12 5 9 10 -3 6 -13 10 -21 10 -8
0 -12 -4 -9 -10z"/>
<path d="M2665 2540 c3 -5 12 -7 20 -3 21 7 19 13 -6 13 -11 0 -18 -4 -14 -10z"/>
<path d="M2610 1670 c0 -5 5 -10 10 -10 6 0 10 5 10 10 0 6 -4 10 -10 10 -5 0
-10 -4 -10 -10z"/>
<path d="M2350 1526 c0 -9 5 -16 10 -16 6 0 10 4 10 9 0 6 -4 13 -10 16 -5 3
-10 -1 -10 -9z"/>
<path d="M3566 2074 c-8 -21 -8 -24 3 -24 5 0 11 9 14 20 6 24 -8 27 -17 4z"/>
<path d="M3536 1998 c-3 -13 -6 -30 -6 -38 1 -13 2 -13 9 0 16 27 22 60 13 60
-5 0 -12 -10 -16 -22z"/>
<path d="M3762 1775 c0 -16 2 -22 5 -12 2 9 2 23 0 30 -3 6 -5 -1 -5 -18z"/>
<path d="M3730 1755 c0 -8 5 -15 10 -15 6 0 10 7 10 15 0 8 -4 15 -10 15 -5 0
-10 -7 -10 -15z"/>
<path d="M3735 1664 c-4 -22 -2 -41 4 -47 8 -8 11 -5 11 11 0 13 6 22 15 22 8
0 15 9 15 21 0 11 -4 17 -10 14 -5 -3 -10 -1 -10 4 0 27 -18 7 -25 -25z"/>
<path d="M4533 1575 c0 -44 2 -61 4 -37 2 23 2 59 0 80 -2 20 -4 1 -4 -43z"/>
<path d="M4430 1274 c0 -74 4 -113 10 -109 6 4 10 53 10 116 0 66 -4 109 -10
109 -6 0 -10 -45 -10 -116z"/>
<path d="M4294 1155 c0 -110 2 -156 3 -103 2 53 2 143 0 200 -1 57 -3 13 -3
-97z"/>
<path d="M3734 1124 c3 -9 6 -22 6 -30 0 -8 5 -14 10 -14 6 0 10 14 10 30 0
21 -5 30 -16 30 -11 0 -14 -5 -10 -16z"/>
<path d="M3730 991 c0 -39 4 -72 9 -75 16 -10 30 19 30 64 0 58 -7 80 -25 80
-11 0 -14 -16 -14 -69z"/>
<path d="M4140 910 c0 -5 5 -10 10 -10 6 0 10 5 10 10 0 6 -4 10 -10 10 -5 0
-10 -4 -10 -10z"/>
<path d="M4162 881 c2 -7 7 -12 11 -12 12 1 9 15 -3 20 -7 2 -11 -2 -8 -8z"/>
<path d="M3737 844 c-10 -10 -9 -64 1 -64 5 0 14 -10 21 -22 9 -19 10 -15 5
27 -6 51 -15 71 -27 59z"/>
<path d="M4260 815 c0 -8 5 -15 10 -15 6 0 10 7 10 15 0 8 -4 15 -10 15 -5 0
-10 -7 -10 -15z"/>
<path d="M4322 784 c1 -9 9 -19 16 -22 9 -3 13 2 10 14 -1 9 -9 19 -16 22 -9
3 -13 -2 -10 -14z"/>
<path d="M4171 754 c0 -11 3 -14 6 -6 3 7 2 16 -1 19 -3 4 -6 -2 -5 -13z"/>
<path d="M4608 709 c-19 -33 -25 -109 -8 -109 6 0 10 7 10 15 0 8 4 15 9 15 5
0 19 15 31 34 18 30 19 38 8 55 -18 29 -30 26 -50 -10z"/>
<path d="M3734 706 c-4 -10 -2 -22 4 -28 8 -8 13 -7 18 6 4 10 2 22 -4 28 -8
8 -13 7 -18 -6z"/>
<path d="M4480 706 c0 -10 9 -16 21 -16 24 0 21 23 -4 28 -10 2 -17 -3 -17
-12z"/>
<path d="M4210 684 c0 -8 5 -12 10 -9 6 4 8 11 5 16 -9 14 -15 11 -15 -7z"/>
<path d="M4480 584 c0 -8 2 -14 4 -14 2 0 11 -3 20 -6 10 -4 16 -1 16 9 0 8
-9 17 -20 20 -13 3 -20 0 -20 -9z"/>
<path d="M4260 571 c0 -6 5 -13 10 -16 6 -3 10 1 10 9 0 9 -4 16 -10 16 -5 0
-10 -4 -10 -9z"/>
<path d="M4395 490 c3 -5 10 -10 16 -10 5 0 9 5 9 10 0 6 -7 10 -16 10 -8 0
-12 -4 -9 -10z"/>
</g>
</svg>
